<svg width="31.766cm" height="7.3302cm" version="1.1" viewBox="0 0 317.66 73.302" xmlns="http://www.w3.org/2000/svg"><g transform="translate(57.625 10)" display="none"><path d="m103.19 52.917c-0.97961-0.09398-1.5975-0.12875-2.5516-0.7493-0.95411-0.62055-1.3459-1.1934-1.427-1.1934-0.0321 0-0.25494 0.16272-0.4952 0.36161-0.24026 0.19888-0.62734 0.49042-0.86017 0.64785-0.23283 0.15744-0.46143 0.3303-0.508 0.38414-0.21594 0.24968-0.77913 0.35852-1.9525 0.37734-1.104 0.01771-1.2239 4e-3 -1.651-0.18835-0.56987-0.2567-1.0603-0.58887-1.6629-1.1264-0.89841-0.80131-1.3488-1.2631-1.477-1.5145-0.07125-0.1397-0.22646-0.42545-0.3449-0.635-1.8009-2.3772 0.25382-4.4569 0.70036-2.3283 0.05785 0.2794 0.15099 0.5842 0.20697 0.67733 0.05598 0.09313 0.12965 0.31938 0.16371 0.50277 0.13291 0.71559 0.53144 1.3245 1.4302 2.1852 0.47397 0.45389 0.90221 0.82537 1.1861 1.0222 0.28392 0.19687 1.0647 0.48084 1.4677 0.48084 0.42208 0 0.7654-0.13965 1.256-0.51091 0.18627-0.14096 0.43392-0.32179 0.55033-0.40185 0.60591-0.41669 1.9074-1.7081 2.54-2.5204 0.11642-0.14948 0.49991-0.62879 0.85222-1.0651 0.3523-0.43635 0.85553-1.1017 1.1183-1.4786 0.43605-0.62528 0.89853-1.1584 1.3341-1.7278 0.11281-0.16298 0.3203-0.42382 0.46109-0.57963 0.14078-0.15581 0.591-0.78446 1.0005-1.397 0.47591-0.72334 1.0582-1.5433 1.5274-2.1685 0.2493-0.33139 0.5259-0.73038 0.61468-0.88664 0.31569-0.55568 1.3509-2.0392 1.6085-2.305 0.34658-0.35769 0.86797-0.70659 1.0559-0.70659 0.16773 0 0.63321 0.36196 0.75277 0.58536 0.0598 0.11173-0.0185 0.24644-0.35156 0.6047-0.95088 1.0699-1.7284 2.4392-2.4902 3.3806-0.43754 0.5388-0.96379 1.3412-0.87959 1.4254 0.58678 0.12303 1.2672-0.02815 1.6865 0.0623 0.89511 0.23727 2.3259 0.0086 2.7986 0.68604 0.16452 0.23488 0.16443 0.27593-9e-4 0.44126-0.18325 0.18325-1.4186 0.22904-2.283 0.04485-0.94773-0.2281-1.6776 0.05286-2.6231-0.1307-0.2608-0.09091-0.29867-0.0827-0.41929 0.09095-0.1597 0.22989-1.1783 1.4528-1.3096 1.5722-0.2119 0.19279-0.75442 0.91768-1.3671 1.8267-0.3586 0.53202-0.73298 1.0653-1.6218 2.1481-0.88878 1.0829-1.0412 1.2858-1.0412 1.3222 0 0.03643 0.10478 0.17554 0.41136 0.60209 0.30657 0.42655 0.47562 0.52845 1.1567 0.79234l0.82587 0.32 1.4066 0.0063c0.7736 0.0035 1.7113-0.04101 2.0839-0.09886 1.3299-0.20652 1.8682-0.28556 2.2515-0.3306l0.38883-0.04569-0.0392-0.81601c-0.0354-0.73736-0.0139-0.89762 0.22371-1.6627 0.14462-0.46567 0.35741-0.96097 1.0179-1.8922s0.97521-1.2517 1.4135-1.554c0.52793-0.36415 0.86493-0.4686 1.8216-0.56453 0.81594-0.08182 0.95369-0.07402 1.524 0.08631 0.77416 0.21764 0.84085 0.25188 1.4892 0.76448l0.52353 0.41393 0.29377-0.29377c0.4019-0.4019 0.8349-0.4822 1.127-0.20899 0.41271 0.386 0.15402 0.46464-0.24526 0.98546-0.20118 0.26244-0.46104 0.63405-0.57746 0.8258-0.11642 0.19174-0.34502 0.53-0.508 0.75166-0.73723 1.0027-1.3074 1.9734-1.3589 2.6104-0.0368 0.38182 0.15413 0.63219 0.52951 0.6917 0.38376 0.06083 0.92178 0.12157 1.6629 0.18773 1.2493 0.11152 2.5869-0.26913 3.3275-0.94689 0.4522-0.30913 0.82259-0.76758 1.1407-1.1241 0.49103-0.54614 1.5933-2.0537 1.3531-2.3712s-0.86899-0.80605-0.96821-1.1654c-0.069-0.24985-0.18693-0.50334 0.32102-1.1551 0.50796-0.65172 0.78059-0.58373 1.1416-0.5522 1.0823 0.09451 2.1874 1.0511 1.8459 1.5978-0.13368 0.21405-0.0196 0.23226 1.459 0.23276 1.1401 4.23e-4 1.2977 0.01874 1.6304 0.18987 0.35702 0.18362 0.68384 0.62148 0.61148 0.79495-0.0724 0.17347-0.63573 1.4219-0.99102 2.0343-0.20797 0.35849-0.60796 1.4976-0.60796 1.7314 0 0.40626 0.34687 0.73365 0.83907 0.79194 0.48315 0.05722 0.96635-0.08594 1.7094-0.50645 0.53025-0.30008 1.0922-0.54898 1.3852-0.65126s0.64698-0.40751 0.81708-0.752c0.1701-0.34449 0.44089-0.56557 0.59676-0.82655 0.15586-0.26098 0.6782-1.1254 0.74836-1.1841 0.27904-0.23318 0.88601-1.3411 1.6351-2.9845 0.14326-0.31432 0.29122-0.5715 0.5122-0.89023 0.22099-0.31873 0.33557-0.51524 0.44415-0.65494 0.85563-1.1008 1.3034-1.7084 1.3034-1.7684 0-0.08435 0.61497-1.0903 0.75063-1.2279 0.0761-0.07717 0.25121-0.36804 0.38913-0.64637 0.33003-0.66603 0.91256-1.5048 1.4099-2.0301 0.33249-0.35056 0.69069-0.86737 1.1333-0.89066 0.50863-0.02215 0.54419-0.02864 0.71838 0.14982 0.23981 0.57804-0.0125 0.85017-0.31622 1.1828-0.46251 0.50217-0.50493 0.55425-0.77791 0.95505-0.11101 0.16298-0.28801 0.39158-0.39335 0.508-0.10534 0.11642-0.25819 0.38312-0.33967 0.59267-0.12994 0.33418-0.29798 0.6169-0.6284 1.2371-0.33043 0.62021 0.0992 0.62522 0.7974 0.58229 1.5834-0.09736 2.2854 0.15448 2.5211 0.28062 0.24835 0.13291 0.59652 0.70222 0.37093 0.8594s-2.6118 0.10649-4.1899 0.02365c-0.49767 0.02531-0.57202-0.05661-0.8576 0.25177-0.39033 0.41293-1.0111 1.283-1.0851 1.3948s-0.60335 0.99328-0.60335 1.1317c0 0.15515-0.35764 0.84271-0.43284 0.95073s-0.41721 0.84489-0.50022 0.90798c-0.11201 0.08513-1.2305 1.83-1.3799 2.1528-0.0847 0.18285-0.17473 0.50813-0.20016 0.72285-0.0398 0.33571-0.0151 0.42744 0.17626 0.65482 0.33986 0.4039 0.79381 0.51952 1.8779 0.47831 0.50851-0.01933 1.1228-0.07428 1.365-0.12212 0.31349-0.0619 0.49091-0.05995 0.87833 0.0174 0.38743 0.07735 0.42069 0.149 0.40056 0.35231-0.0399 0.40297-0.73102 0.75412-1.677 0.85206-1.3716 0.14201-2.4925 0.10073-3.091-0.27006-0.59849-0.37079-1.0392-0.86144-1.1769-1.0104-0.13773-0.14893-0.72872 0.11678-0.87654 0.18891-0.14782 0.07213-1.1948 0.79483-1.7982 1.0781-0.23994 0.11264-1.8326 0.14549-2.2932 0.04729-0.34324-0.07318-1.2091-0.84416-1.5007-1.3362-0.42962-0.72499-0.30979-0.90415 0.57256-2.6932 0.29643-0.60104 0.78639-1.3588 0.35927-1.4141-0.42715-0.05531-2.268 0.05735-2.3649 0.12171-0.0435 0.02887-0.17963 0.26205-0.69301 1.15s-0.75153 1.2137-1.0723 1.5485c-0.53587 0.7175-1.1467 1.321-1.646 1.7775-0.66783 0.6089-3.6915 1.0356-4.6122 0.65093-0.23575-0.0985-0.45351-0.11801-0.84688-0.07589-0.4068 0.04356-0.60547 0.0236-0.85716-0.08613-0.1802-0.07856-0.45263-0.19676-0.72739-0.44463-0.27477-0.24787-0.42813-0.22334-0.88768 0.04431-1.0388 0.60504-1.8755 0.86427-2.7893 0.86427-0.59881 0-1.1946-0.23286-1.5605-0.6099-0.42443-0.21466-0.41883-0.0558-0.70174-0.01194-0.46672 0.13114-0.53333 0.23469-2.297 0.45176-1.41 0.17354-2.076 0.19026-3.2173 0.08077zm8.5124-1.1813c0.24743-0.04692 0.6622-0.18506 0.92173-0.30698 0.25952-0.12192 0.71067-0.28604 1.0026-0.36471 0.29188-0.07868 0.5046-0.16914 0.53621-0.21407 0.0316-0.04493 0.0761-0.13339 0.0761-0.24151 0-0.27723 0.21864-0.88571 0.51068-1.4212 0.13692-0.25108 0.31616-0.58935 0.3983-0.75171 0.0821-0.16236 0.33252-0.54223 0.5564-0.84415l0.40705-0.54895-0.19538-0.14337c-0.10746-0.07885-0.36684-0.2986-0.57639-0.48833-0.50302-0.45545-0.80908-0.54971-1.5554-0.47904-0.87584 0.08294-1.1513 0.1744-1.6532 0.5488-0.5518 0.4117-0.76495 0.68757-1.408 1.8223-0.38869 0.68589-0.51402 1.0363-0.62762 1.755-0.0711 0.44984 0.078 1.4305 0.24885 1.6364 0.1242 0.14965 0.69593 0.16716 1.358 0.0416zm12.725-5.7337c0.10389-0.25082-0.19596-0.66573-0.33536-0.66573-0.18198 0-0.44105 0.5106-0.29506 0.65659 0 0 0.525 0.23784 0.63042 0.0091z" display="inline" stroke-width=".084667"/></g><g fill="#fff"><g transform="translate(57.625 10)"><path d="m114.54 30.959c-0.23196-0.0041-0.45109 0.10615-0.58594 0.29492-4.3327 5.9081-8.5549 11.883-13.021 17.654-0.96953 0.68715-1.9106 1.5474-2.8555 2.127-0.95994 0.58879-1.8326 0.86304-2.8242 0.55859-2.3395-1.3174-3.9688-1.3229-5.2917-3.9688-0.34896-0.8724-1.6576-0.34896-1.3086 0.52344 1.1415 2.8491 3.3546 3.2713 5.9811 4.7285 0.03862 0.02133 0.07917 0.03898 0.12109 0.05273 1.504 0.49529 2.9091 0.01291 4.0605-0.69336 0.88086-0.54029 1.5974-1.1601 2.3125-1.7188 0.81877 1.0506 1.9549 1.9567 3.172 2.3101 1.3766 0.39968 2.8362 0.43943 4.0957 0.25 2.5174-0.37864 4.8997-1.5769 6.5467-1.0152h2e-3c0.99831 1.0714 1.7688 1.155 3.0918 1.155s2.6458-0.26458 3.7042-1.0583c0.92012 0.75882 2.4785 0.75586 3.751 0.95612 1.5474 0.24352 2.9677 0.26009 3.8672-0.01953 0.61803-0.19214 0.9952-0.62899 1.4648-1.166s0.96827-1.201 1.4824-1.9004c1.0283-1.3988 2.1441-2.9456 2.9707-3.6934 0.0314-0.0286 0.0601-0.05998 0.0859-0.09375 0.31524-0.41009 0.39119-0.66333 0.60742-0.99219 1.0135 0.09291 2.1535 0.21971 3.2246 0.39844-0.0787 0.21474-0.0979 0.34827-0.2207 0.61524-0.25525 0.55512-0.57448 1.1942-0.82812 1.8809-0.25365 0.68668-0.44852 1.4266-0.40821 2.1992 0.0403 0.77267 0.35168 1.5764 1.0156 2.2227 0.0535 0.05163 0.11478 0.09448 0.18164 0.12695 1.5491 0.75743 3.1203 0.46068 4.4609-0.13281 1.1487-0.50853 2.1446-1.1906 3.084-1.7344 0.68484 1.1012 1.6152 1.8595 2.6914 2.125 1.3023 0.32133 2.6899 0.16664 3.9824-0.08203 0.96676-0.146 0.68642-1.6054-0.26563-1.3828-1.2053 0.23189-2.4172 0.333-3.3789 0.0957-0.86595-0.21367-1.5158-0.71075-2.0078-1.6738 2.1125-3.4115 4.406-6.773 6.5185-10.185h5.8208c1.0583 0 1.0582-1.4872-1.2e-4 -1.4872h-5.0271c1.1694-1.8885 2.2295-3.7406 3.3988-5.629 0.49363-0.79951-0.70559-1.5397-1.1992-0.74024-3.6171 5.8414-7.2344 11.682-10.852 17.523-1.1252 0.61436-2.245 1.3979-3.3359 1.8809-1.1011 0.48746-2.0893 0.63961-3.1367 0.18164-0.34985-0.37784-0.52194-0.74118-0.54492-1.1816-0.025-0.47892 0.10396-1.0477 0.32227-1.6387 0.21831-0.59102 0.51914-1.1985 0.78711-1.7812 0.26796-0.58277 0.51706-1.1261 0.58008-1.7188 0.0371-0.34921-0.18867-0.6724-0.5293-0.75781-0.94904-0.2369-2.2501-0.31541-3.5371-0.4375 0.21721-0.67552 0.10482-1.3705-0.19531-1.9395-0.35116-0.66566-0.98799-1.0235-1.5586-1.1055-0.5706-0.08201-1.0798 0.03993-1.4746 0.2168-0.38616 0.17302-0.77875 0.45799-1.0098 0.91797-0.23102 0.45998-0.23738 1.0601-4e-3 1.6328 0.22872 0.56106 0.61965 0.9679 1.0449 1.1797 0.3225 0.1606 0.61302 0.17229 0.89453 0.19727-0.10726 0.14785-0.0892 0.17909-0.21875 0.34766l0.0859-0.09375c-1.0541 0.95361-2.1426 2.5182-3.1602 3.9023-0.5088 0.69209-0.99471 1.3377-1.4082 1.8105-0.41349 0.47283-0.81772 0.74468-0.82226 0.74609-0.3457 0.10747-1.8446 0.19076-3.2305-0.02734-1.2365-0.19459-3.705-0.09271-2.9112-1.4156s2.2238-4.3231 3.5655-6.3246c0.54834-0.78472-0.6515-1.59-1.1699-0.78516-0.17686 0.26384-0.26627 0.53135-0.4375 0.8125-0.76618-0.75819-1.6782-1.4203-2.7344-1.7617-1.2719-0.41118-2.7277-0.38103-3.9863 0.43555-0.0274 0.0177-0.0534 0.03728-0.0781 0.05859-1.1319 0.98374-2.2999 2.2357-3.0723 3.6973-0.65155 1.2329-0.88322 2.6589-0.63477 4.1172-2.0777-0.21131-4.186 0.8437-6.0662 1.1265-1.0675 0.16056-2.3531 0.12174-3.4922-0.20898-1.0393-0.30175-1.9266-1.0552-2.5256-1.8648 2.4903-3.2229 5.0115-6.5984 7.4026-9.8857h6.6146c0.79375 0 0.79375-1.3229 0-1.3229h-5.8208c1.5412-2.1235 3.1784-4.2005 4.7275-6.3129 0.34705-0.45996 0.0253-1.1194-0.55078-1.1289zm20.271 11.328c0.2248 0.03231 0.36585 0.08892 0.51367 0.36914 0.19733 0.37405 0.22221 0.49018 0.10352 0.85352-0.0153 0.04688-0.12859 0.18722-0.15235 0.24219-0.0978-0.0062-0.40747-0.05604-0.4707-0.05859-0.26611-0.01073-0.47314-0.04739-0.60937-0.11523-0.13624-0.06784-0.24397-0.14891-0.36719-0.45117-0.11848-0.29062-0.0822-0.3848-0.041-0.4668 0.0412-0.08199 0.14872-0.18612 0.32617-0.26562 0.16885-0.07565 0.47247-0.13973 0.69727-0.10742zm-14.654 1.1113c0.46666-0.03796 0.94614 0.03445 1.4316 0.19141 0.93141 0.30111 1.8222 0.96377 2.4785 1.7031-1.0844 1.9887-2.206 4.1783-2.9336 5.459-0.35742 0.62911-1.3985 1.2091-2.5293 1.3086-1.1308 0.09945-2.2432-0.23667-2.8652-1.082-0.0246-0.03293-0.052-0.06365-0.082-0.0918-0.42292-1.3074-0.17159-2.5662 0.47461-3.7891 0.64227-1.2154 1.6824-2.3442 2.7129-3.2461 0.4214-0.26483 0.85994-0.41631 1.3125-0.45312z" color="#000000" color-rendering="auto" dominant-baseline="auto" image-rendering="auto" shape-rendering="auto" solid-color="#000000" style="font-feature-settings:normal;font-variant-alternates:normal;font-variant-caps:normal;font-variant-ligatures:normal;font-variant-numeric:normal;font-variant-position:normal;isolation:auto;mix-blend-mode:normal;shape-padding:0;text-decoration-color:#000000;text-decoration-line:none;text-decoration-style:solid;text-indent:0;text-orientation:mixed;text-transform:none;white-space:normal"/><path d="m105.83 0h84.667l-2.6458 2.6458h-84.667z"/><path d="m111.12 8.3785h84.667l-2.6458 2.6458h-84.667z"/><path d="m116.42 16.757h84.667l-2.6458 2.6458h-84.667z"/><path d="m121.71 25.135h84.667l-2.6458 2.6458h-84.667z"/><path d="m149.61 36.16h-27.904l2.6458-2.6458h27.715z"/><path d="m162.36 33.514 47.979-5.8e-5 -2.6458 2.6458-47.979 5.7e-5z"/><path d="m215.64 41.892-2.6458 2.6458h-50.271l2.6458-2.6458z"/><path d="m220.93 50.271-2.6458 2.6458h-59.531l2.6458-2.6458z"/><path d="m195.79 2.3769e-6h13.229l-2.6458 2.6458h-13.229z"/><path d="m201.08 8.378h13.229l-2.6458 2.6458h-13.229z"/><path d="m206.38 16.757h13.229l-2.6458 2.6458h-13.229z"/><path d="m211.67 25.135h13.229l-2.6458 2.6458h-13.229z"/><path d="m215.64 33.514h13.229l-2.6458 2.6458h-13.229z"/><path d="m220.93 41.892h13.229l-2.6458 2.6458h-13.229z"/><path d="m226.22 50.271h13.229l-2.6458 2.6458h-13.229z"/><path d="m214.31 2.3769e-6 5.2917-1e-13 -2.6458 2.6458h-5.2917z"/><path d="m219.6 8.378h5.2917l-2.6458 2.6458h-5.2917z"/><path d="m224.9 16.757h5.2917l-2.6458 2.6458h-5.2917z"/><path d="m230.19 25.135h5.2917l-2.6458 2.6458h-5.2917z"/><path d="m234.16 33.514h5.2917l-2.6458 2.6458h-5.2917z"/><path d="m239.45 41.892h5.2917l-2.6458 2.6458h-5.2917z"/><path d="m244.74 50.271h5.2917l-2.6458 2.6458h-5.2917z"/></g><g transform="translate(57.625 -234.08)"><path d="m5.2917 244.08h-23.812c-13.229 0-29.104 13.229-29.104 26.458 0 13.229 7.9375 26.458 21.167 26.458h21.167l2.6458-5.2917h-21.167c-13.229 0-18.521-7.9375-18.521-21.167 0-13.229 13.229-23.812 26.458-23.812h18.521z" fill="#fff" stroke-width="0"/></g><g transform="translate(57.625 10)"><path d="m52.917 3.3333e-8 -2.6458 2.6458-26.458 7e-7c-5.2917 0-13.229 7.9375-13.229 13.229s2.6458 10.583 7.9375 10.583h15.875c5.2917 0 10.583 5.2917 10.583 13.229s-2.6458 13.229-7.9375 13.229h-37.042l2.6458-5.2917h31.75c5.2917 0 5.2917-5.2917 5.2917-7.9375s-2.6458-10.583-7.9375-10.583h-15.875c-7.9375 0-10.583-5.2917-10.583-13.229 1e-6 -7.9375 7.9375-15.875 15.875-15.875z"/><path d="m100.54 0-2.6458 2.6458h-26.458c-5.2917 0-13.229 7.9375-13.229 13.229s2.6458 10.583 7.9375 10.583h15.875c5.2917 0 10.583 5.2917 10.583 13.229s-2.6458 13.229-7.9375 13.229h-37.042l2.6458-5.2917h31.75c5.2917 0 5.2917-5.2917 5.2917-7.9375s-2.6458-10.583-7.9375-10.583h-15.875c-7.9375 0-10.583-5.2917-10.583-13.229 1e-6 -7.9375 7.9375-15.875 15.875-15.875z"/></g></g></svg>
