<?xml version="1.0" encoding="UTF-8" standalone="no"?>
<svg
   xmlns:dc="http://purl.org/dc/elements/1.1/"
   xmlns:cc="http://creativecommons.org/ns#"
   xmlns:rdf="http://www.w3.org/1999/02/22-rdf-syntax-ns#"
   xmlns:svg="http://www.w3.org/2000/svg"
   xmlns="http://www.w3.org/2000/svg"
   id="svg8"
   version="1.1"
   viewBox="0 0 317.65625 73.301653"
   height="7.3301649cm"
   width="31.765627cm">
  <defs
     id="defs2" />
  <metadata
     id="metadata5">
    <rdf:RDF>
      <cc:Work
         rdf:about="">
        <dc:format>image/svg+xml</dc:format>
        <dc:type
           rdf:resource="http://purl.org/dc/dcmitype/StillImage" />
        <dc:title></dc:title>
      </cc:Work>
    </rdf:RDF>
  </metadata>
  <g
     transform="translate(57.625002,10.000001)"
     style="display:none"
     id="layer3">
    <path
       id="path891"
       d="m 103.1875,52.916667 c -0.97961,-0.09398 -1.5975,-0.128747 -2.55161,-0.749299 -0.954107,-0.620551 -1.34586,-1.193386 -1.42702,-1.193386 -0.0321,0 -0.25494,0.162723 -0.4952,0.361606 -0.24026,0.198884 -0.62734,0.490418 -0.86017,0.647854 -0.232834,0.157436 -0.461434,0.330299 -0.508001,0.384141 -0.215942,0.249677 -0.779132,0.358521 -1.952479,0.37734 -1.10403,0.01771 -1.22392,0.004 -1.651,-0.188347 -0.569873,-0.256699 -1.060275,-0.588873 -1.662921,-1.12638 -0.898412,-0.801306 -1.348793,-1.263128 -1.477026,-1.514547 -0.07125,-0.1397 -0.226456,-0.42545 -0.344897,-0.635 -1.800931,-2.377247 0.253822,-4.456861 0.700363,-2.328337 0.05785,0.2794 0.150989,0.5842 0.206968,0.677333 0.05598,0.09313 0.129649,0.31938 0.163712,0.502771 0.132914,0.715587 0.531445,1.324499 1.430177,2.185153 0.473973,0.453892 0.902211,0.825367 1.186129,1.02224 0.283918,0.196872 1.064705,0.480836 1.467651,0.480836 0.422085,0 0.765396,-0.139653 1.25599,-0.510914 0.186266,-0.140959 0.433916,-0.321793 0.550333,-0.401854 0.605911,-0.416694 1.907391,-1.708122 2.540001,-2.520383 0.11642,-0.149478 0.49991,-0.628794 0.85222,-1.065147 0.3523,-0.436353 0.85553,-1.101703 1.11828,-1.478554 0.43605,-0.625278 0.89853,-1.1584 1.33411,-1.727815 0.11281,-0.162983 0.3203,-0.423816 0.46109,-0.579629 0.14078,-0.155813 0.591,-0.784463 1.00049,-1.397 0.47591,-0.723336 1.05815,-1.543272 1.52737,-2.168472 0.2493,-0.331391 0.5259,-0.730378 0.61468,-0.886637 0.31569,-0.555677 1.35091,-2.039181 1.60847,-2.305002 0.34658,-0.357692 0.86797,-0.706588 1.05592,-0.706588 0.16773,0 0.63321,0.36196 0.75277,0.585355 0.0598,0.111733 -0.0185,0.246436 -0.35156,0.604701 -0.95088,1.069877 -1.72841,2.43918 -2.49025,3.380599 -0.43754,0.538795 -0.96379,1.341247 -0.87959,1.425445 0.58678,0.123027 1.26715,-0.02815 1.68654,0.0623 0.89511,0.237267 2.32586,0.0086 2.79865,0.686041 0.16452,0.234877 0.16443,0.275928 -9e-4,0.441264 -0.18325,0.183248 -1.41856,0.229041 -2.28298,0.04485 -0.94773,-0.228102 -1.67758,0.05286 -2.6231,-0.1307 -0.2608,-0.09091 -0.29867,-0.0827 -0.41929,0.09095 -0.1597,0.229886 -1.17829,1.452776 -1.30955,1.572197 -0.2119,0.192793 -0.75442,0.917681 -1.36713,1.8267 -0.3586,0.532015 -0.73298,1.065284 -1.62175,2.148144 -0.88878,1.08286 -1.04118,1.285801 -1.04118,1.32223 0,0.03643 0.10478,0.175538 0.41136,0.602086 0.30657,0.426548 0.47562,0.528451 1.15668,0.792343 l 0.82587,0.319997 1.40655,0.0063 c 0.7736,0.0035 1.71134,-0.04101 2.08388,-0.09886 1.32988,-0.206517 1.86816,-0.285556 2.25149,-0.330598 l 0.38883,-0.04569 -0.0392,-0.816009 c -0.0354,-0.737359 -0.0139,-0.897616 0.22371,-1.662677 0.14462,-0.465666 0.35741,-0.960966 1.01786,-1.892235 0.66045,-0.931269 0.97521,-1.251711 1.41347,-1.554014 0.52793,-0.364154 0.86493,-0.468597 1.82155,-0.564526 0.81594,-0.08182 0.95369,-0.07402 1.524,0.08631 0.77416,0.217642 0.84085,0.251876 1.48919,0.764482 l 0.52353,0.41393 0.29377,-0.293769 c 0.4019,-0.401899 0.8349,-0.482195 1.127,-0.208993 0.41271,0.386001 0.15402,0.464645 -0.24526,0.985461 -0.20118,0.262442 -0.46104,0.634049 -0.57746,0.825795 -0.11642,0.191745 -0.34502,0.529995 -0.508,0.751665 -0.73723,1.002693 -1.30739,1.973447 -1.3589,2.610356 -0.0368,0.38182 0.15413,0.632192 0.52951,0.6917 0.38376,0.06083 0.92178,0.12157 1.66291,0.187728 1.24927,0.111516 2.58688,-0.269126 3.32747,-0.946891 0.4522,-0.309129 0.82259,-0.767576 1.14074,-1.124108 0.49103,-0.546139 1.59326,-2.053746 1.35314,-2.371246 -0.24012,-0.3175 -0.86899,-0.806053 -0.96821,-1.165389 -0.069,-0.249853 -0.18693,-0.503344 0.32102,-1.155065 0.50796,-0.65172 0.78059,-0.583727 1.14165,-0.552198 1.08232,0.09451 2.18739,1.051065 1.84593,1.597835 -0.13368,0.21405 -0.0196,0.232257 1.45898,0.232755 1.14008,4.23e-4 1.2977,0.01874 1.63043,0.18987 0.35702,0.183621 0.68384,0.621479 0.61148,0.79495 -0.0724,0.173472 -0.63573,1.421851 -0.99102,2.034265 -0.20797,0.358487 -0.60796,1.497588 -0.60796,1.731374 0,0.406262 0.34687,0.73365 0.83907,0.791944 0.48315,0.05722 0.96635,-0.08594 1.7094,-0.506446 0.53025,-0.300078 1.0922,-0.548982 1.38516,-0.651256 0.29296,-0.102274 0.64698,-0.407514 0.81708,-0.752002 0.1701,-0.344487 0.44089,-0.565569 0.59676,-0.826546 0.15586,-0.260976 0.6782,-1.125441 0.74836,-1.184073 0.27904,-0.233178 0.88601,-1.341092 1.63507,-2.9845 0.14326,-0.314325 0.29122,-0.5715 0.5122,-0.890231 0.22099,-0.318731 0.33557,-0.515236 0.44415,-0.654936 0.85563,-1.100842 1.30341,-1.708363 1.30341,-1.768384 0,-0.08435 0.61497,-1.09029 0.75063,-1.227853 0.0761,-0.07717 0.25121,-0.368035 0.38913,-0.646368 0.33003,-0.666026 0.91256,-1.50477 1.40993,-2.030061 0.33249,-0.35056 0.69069,-0.86737 1.13331,-0.890657 0.50863,-0.02215 0.54419,-0.02864 0.71838,0.149823 0.23981,0.578036 -0.0125,0.85017 -0.31622,1.182788 -0.46251,0.502168 -0.50493,0.554247 -0.77791,0.955046 -0.11101,0.162983 -0.28801,0.391583 -0.39335,0.507999 -0.10534,0.116417 -0.25819,0.383117 -0.33967,0.592667 -0.12994,0.334175 -0.29798,0.6169 -0.6284,1.237115 -0.33043,0.620214 0.0992,0.625224 0.7974,0.582294 1.58341,-0.09736 2.28539,0.154475 2.52108,0.280615 0.24835,0.132909 0.59652,0.702223 0.37093,0.859398 -0.22559,0.157175 -2.61177,0.106487 -4.18989,0.02365 -0.49767,0.02531 -0.57202,-0.05661 -0.8576,0.251766 -0.39033,0.412933 -1.01106,1.283013 -1.08506,1.394762 -0.074,0.111749 -0.60335,0.993282 -0.60335,1.131707 0,0.155152 -0.35764,0.842709 -0.43284,0.950727 -0.0752,0.108018 -0.41721,0.844887 -0.50022,0.907982 -0.11201,0.08513 -1.23048,1.830044 -1.37991,2.152784 -0.0847,0.182848 -0.17473,0.508132 -0.20016,0.722852 -0.0398,0.335714 -0.0151,0.427442 0.17626,0.654821 0.33986,0.403903 0.79381,0.519524 1.87794,0.478309 0.50851,-0.01933 1.12275,-0.07428 1.36499,-0.122115 0.31349,-0.0619 0.49091,-0.05995 0.87833,0.0174 0.38743,0.07735 0.42069,0.149 0.40056,0.352312 -0.0399,0.402966 -0.73102,0.75412 -1.67699,0.852058 -1.37164,0.142009 -2.49253,0.100727 -3.09103,-0.27006 -0.59849,-0.370786 -1.03916,-0.861436 -1.17689,-1.01037 -0.13773,-0.148933 -0.72872,0.116779 -0.87654,0.188908 -0.14782,0.07213 -1.19478,0.79483 -1.79818,1.078104 -0.23994,0.112645 -1.83261,0.145489 -2.29319,0.04729 -0.34324,-0.07318 -1.20914,-0.844161 -1.5007,-1.336194 -0.42962,-0.724992 -0.30979,-0.904153 0.57256,-2.693209 0.29643,-0.60104 0.78639,-1.358776 0.35927,-1.414087 -0.42715,-0.05531 -2.26799,0.05735 -2.36494,0.121708 -0.0435,0.02887 -0.17963,0.262047 -0.69301,1.150021 -0.51338,0.887974 -0.75153,1.213692 -1.07232,1.548489 -0.53587,0.717503 -1.14671,1.321004 -1.64605,1.777463 -0.66783,0.6089 -3.69152,1.035635 -4.61225,0.650928 -0.23575,-0.0985 -0.45351,-0.118014 -0.84688,-0.07589 -0.4068,0.04356 -0.60547,0.0236 -0.85716,-0.08613 -0.1802,-0.07856 -0.45263,-0.196757 -0.72739,-0.444628 -0.27477,-0.247871 -0.42813,-0.223337 -0.88768,0.04431 -1.03885,0.605041 -1.87546,0.864269 -2.78929,0.864269 -0.59881,0 -1.19461,-0.232858 -1.56052,-0.609903 -0.42443,-0.214663 -0.41883,-0.0558 -0.70174,-0.01194 -0.46672,0.131136 -0.53333,0.234689 -2.29701,0.451759 -1.40999,0.173539 -2.07602,0.190259 -3.21733,0.08077 z m 8.51241,-1.181333 c 0.24743,-0.04692 0.6622,-0.185062 0.92173,-0.306976 0.25952,-0.121915 0.71067,-0.286035 1.00256,-0.364711 0.29188,-0.07868 0.5046,-0.169137 0.53621,-0.214066 0.0316,-0.04493 0.0761,-0.133388 0.0761,-0.241512 0,-0.277232 0.21864,-0.885712 0.51068,-1.421245 0.13692,-0.251078 0.31616,-0.589346 0.3983,-0.751707 0.0821,-0.162361 0.33252,-0.542229 0.5564,-0.844149 l 0.40705,-0.548947 -0.19538,-0.143367 c -0.10746,-0.07885 -0.36684,-0.298601 -0.57639,-0.488334 -0.50302,-0.455449 -0.80908,-0.549713 -1.55537,-0.479038 -0.87584,0.08294 -1.15134,0.174401 -1.65315,0.548797 -0.5518,0.411698 -0.76495,0.687567 -1.40797,1.822282 -0.38869,0.685887 -0.51402,1.036345 -0.62762,1.755022 -0.0711,0.449841 0.078,1.430524 0.24885,1.636356 0.1242,0.149648 0.69593,0.167161 1.35801,0.0416 z m 12.72512,-5.733739 c 0.10389,-0.250815 -0.19596,-0.665726 -0.33536,-0.665726 -0.18198,0 -0.44105,0.510598 -0.29506,0.656587 0,0 0.525,0.237839 0.63042,0.0091 z"
       style="display:inline;fill:#000000;stroke-width:0.08466666" />
  </g>
  <g
     transform="translate(57.625002,10.000001)"
     id="layer4">
    <path
       id="path914"
       d="m 114.53711,30.958986 c -0.23196,-0.0041 -0.45109,0.106149 -0.58594,0.294922 -4.3327,5.908086 -8.55492,11.883321 -13.02149,17.654297 -0.969528,0.687152 -1.910588,1.547402 -2.855462,2.126953 -0.959937,0.588792 -1.83256,0.863036 -2.824219,0.558594 -2.339488,-1.317412 -3.96875,-1.322916 -5.291667,-3.96875 -0.348958,-0.872396 -1.657552,-0.348959 -1.308594,0.523437 1.141467,2.849055 3.35458,3.27126 5.98112,4.728516 0.03862,0.02133 0.07917,0.03898 0.121094,0.05273 1.50402,0.495288 2.909073,0.01291 4.060547,-0.693359 0.880863,-0.54029 1.597381,-1.160107 2.312501,-1.71875 0.81877,1.05059 1.95487,1.956678 3.17205,2.310082 1.37659,0.399684 2.83622,0.439432 4.09571,0.25 2.51745,-0.378636 4.89966,-1.576911 6.54669,-1.01516 h 0.002 c 0.99831,1.07141 1.76883,1.154952 3.09175,1.154952 1.32292,0 2.64583,-0.264584 3.70417,-1.058334 0.92012,0.758822 2.47847,0.75586 3.75096,0.956116 1.54742,0.243524 2.96774,0.26009 3.86719,-0.01953 0.61803,-0.192136 0.9952,-0.628986 1.46484,-1.166016 0.46964,-0.53703 0.96827,-1.200999 1.48242,-1.90039 1.02831,-1.398783 2.14412,-2.945583 2.9707,-3.69336 0.0314,-0.0286 0.0601,-0.05998 0.0859,-0.09375 0.31524,-0.410091 0.39119,-0.663331 0.60742,-0.992187 1.01346,0.09291 2.15351,0.219708 3.22461,0.398437 -0.0787,0.214743 -0.0979,0.348271 -0.2207,0.615235 -0.25525,0.555122 -0.57448,1.194182 -0.82812,1.880859 -0.25365,0.686677 -0.44852,1.426553 -0.40821,2.199219 0.0403,0.772666 0.35168,1.576386 1.01563,2.222656 0.0535,0.05163 0.11478,0.09448 0.18164,0.126953 1.54909,0.757434 3.12028,0.460678 4.46094,-0.132812 1.14873,-0.508532 2.14456,-1.19056 3.08398,-1.734375 0.68484,1.101216 1.61521,1.859455 2.69141,2.125 1.30227,0.321328 2.68987,0.166639 3.98242,-0.08203 0.96676,-0.146 0.68642,-1.605405 -0.26563,-1.382812 -1.20533,0.231891 -2.41721,0.332995 -3.3789,0.0957 -0.86595,-0.213666 -1.51576,-0.710754 -2.00782,-1.673828 2.11249,-3.411546 4.40599,-6.772956 6.51848,-10.184501 h 5.82084 c 1.05833,0 1.05821,-1.48725 -1.2e-4,-1.48725 h -5.02709 c 1.16936,-1.88847 2.22948,-3.740558 3.39885,-5.629028 0.49363,-0.799514 -0.70559,-1.539749 -1.19922,-0.740235 -3.61711,5.841416 -7.23445,11.682023 -10.85156,17.523438 -1.1252,0.614362 -2.24503,1.397927 -3.33594,1.880859 -1.10112,0.487456 -2.08934,0.639607 -3.13672,0.181641 -0.34985,-0.377839 -0.52194,-0.741183 -0.54492,-1.181641 -0.025,-0.478921 0.10396,-1.047654 0.32227,-1.638672 0.21831,-0.591017 0.51914,-1.19848 0.78711,-1.78125 0.26796,-0.58277 0.51706,-1.126068 0.58008,-1.71875 0.0371,-0.349209 -0.18867,-0.672401 -0.5293,-0.757812 -0.94904,-0.2369 -2.25012,-0.31541 -3.53711,-0.4375 0.21721,-0.675516 0.10482,-1.370513 -0.19531,-1.939453 -0.35116,-0.665659 -0.98799,-1.023461 -1.5586,-1.105469 -0.5706,-0.08201 -1.07985,0.03993 -1.47461,0.216797 -0.38616,0.173015 -0.77875,0.457994 -1.00976,0.917968 -0.23102,0.459975 -0.23738,1.060106 -0.004,1.632813 0.22872,0.561057 0.61965,0.967902 1.04492,1.179687 0.3225,0.160604 0.61302,0.172292 0.89453,0.197266 -0.10726,0.147853 -0.0892,0.179089 -0.21875,0.347656 l 0.0859,-0.09375 c -1.05411,0.953609 -2.14257,2.518156 -3.16015,3.902344 -0.5088,0.692094 -0.99471,1.33772 -1.40821,1.810547 -0.41349,0.472827 -0.81772,0.744683 -0.82226,0.746094 -0.3457,0.107471 -1.84455,0.190764 -3.23047,-0.02734 -1.2365,-0.194592 -3.70498,-0.09271 -2.91123,-1.415627 0.79375,-1.322917 2.22379,-4.323116 3.56552,-6.324607 0.54834,-0.784725 -0.6515,-1.58996 -1.16992,-0.785157 -0.17686,0.263835 -0.26627,0.531354 -0.4375,0.8125 -0.76618,-0.75819 -1.67823,-1.42028 -2.73437,-1.761718 -1.27188,-0.411182 -2.72772,-0.381026 -3.98633,0.435546 -0.0274,0.0177 -0.0534,0.03728 -0.0781,0.05859 -1.13191,0.983742 -2.29992,2.235731 -3.07227,3.697266 -0.65155,1.232945 -0.88322,2.658932 -0.63477,4.117187 -2.07774,-0.21131 -4.18605,0.843703 -6.06622,1.126488 -1.06749,0.160555 -2.35311,0.12174 -3.49219,-0.208984 -1.03927,-0.301748 -1.92657,-1.055226 -2.52557,-1.864769 2.49032,-3.222908 5.01152,-6.598447 7.40255,-9.885675 h 6.61459 c 0.79375,0 0.79375,-1.322917 0,-1.322917 h -5.82084 c 1.54122,-2.12347 3.17837,-4.200509 4.7275,-6.312899 0.34705,-0.459955 0.0253,-1.119355 -0.55078,-1.128906 z m 20.27148,11.328125 c 0.2248,0.03231 0.36585,0.08892 0.51367,0.369141 0.19733,0.37405 0.22221,0.490181 0.10352,0.853515 -0.0153,0.04688 -0.12859,0.187217 -0.15235,0.242188 -0.0978,-0.0062 -0.40747,-0.05604 -0.4707,-0.05859 -0.26611,-0.01073 -0.47314,-0.04739 -0.60937,-0.115234 -0.13624,-0.06784 -0.24397,-0.148908 -0.36719,-0.451172 -0.11848,-0.290616 -0.0822,-0.384805 -0.041,-0.466797 0.0412,-0.08199 0.14872,-0.186119 0.32617,-0.265625 0.16885,-0.07565 0.47247,-0.139731 0.69727,-0.107422 z m -14.6543,1.111328 c 0.46666,-0.03796 0.94614,0.03445 1.43164,0.191406 0.93141,0.301112 1.82215,0.963766 2.47852,1.703126 -1.08438,1.988652 -2.20597,4.17826 -2.93359,5.458984 -0.35742,0.62911 -1.39854,1.209149 -2.5293,1.308594 -1.13077,0.09945 -2.24323,-0.236666 -2.86524,-1.082032 -0.0246,-0.03293 -0.052,-0.06365 -0.082,-0.0918 -0.42292,-1.307436 -0.17159,-2.566239 0.47461,-3.789063 0.64227,-1.215363 1.68245,-2.344204 2.71289,-3.246094 0.4214,-0.264828 0.85994,-0.416308 1.3125,-0.453125 z"
       style="color:#000000;font-style:normal;font-variant:normal;font-weight:normal;font-stretch:normal;font-size:medium;line-height:normal;font-family:sans-serif;font-variant-ligatures:normal;font-variant-position:normal;font-variant-caps:normal;font-variant-numeric:normal;font-variant-alternates:normal;font-feature-settings:normal;text-indent:0;text-align:start;text-decoration:none;text-decoration-line:none;text-decoration-style:solid;text-decoration-color:#000000;letter-spacing:normal;word-spacing:normal;text-transform:none;writing-mode:lr-tb;direction:ltr;text-orientation:mixed;dominant-baseline:auto;baseline-shift:baseline;text-anchor:start;white-space:normal;shape-padding:0;clip-rule:nonzero;display:inline;overflow:visible;visibility:visible;opacity:1;isolation:auto;mix-blend-mode:normal;color-interpolation:sRGB;color-interpolation-filters:linearRGB;solid-color:#000000;solid-opacity:1;vector-effect:none;fill:#000000;fill-opacity:1;fill-rule:nonzero;stroke:none;stroke-width:1.40907431;stroke-linecap:round;stroke-linejoin:round;stroke-miterlimit:4;stroke-dasharray:none;stroke-dashoffset:0;stroke-opacity:1;color-rendering:auto;image-rendering:auto;shape-rendering:auto;text-rendering:auto;enable-background:accumulate" />
    <path
       id="path931"
       d="M 105.83333,0 H 190.5 l -2.64584,2.6458333 H 103.1875 Z"
       style="fill:#000000;fill-opacity:1;stroke:none;stroke-width:0.26458332;stroke-linecap:butt;stroke-linejoin:miter;stroke-miterlimit:4;stroke-dasharray:none;stroke-opacity:1" />
    <path
       id="path931-3"
       d="m 111.125,8.3784737 h 84.66667 l -2.64584,2.6458333 h -84.66666 z"
       style="fill:#000000;fill-opacity:1;stroke:none;stroke-width:0.26458332;stroke-linecap:butt;stroke-linejoin:miter;stroke-miterlimit:4;stroke-dasharray:none;stroke-opacity:1" />
    <path
       id="path931-3-6"
       d="m 116.41667,16.756948 h 84.66667 l -2.64584,2.645834 h -84.66667 z"
       style="fill:#000000;fill-opacity:1;stroke:none;stroke-width:0.26458332;stroke-linecap:butt;stroke-linejoin:miter;stroke-miterlimit:4;stroke-dasharray:none;stroke-opacity:1" />
    <path
       id="path931-3-7"
       d="M 121.70833,25.13542 H 206.375 l -2.64584,2.645834 H 119.0625 Z"
       style="fill:#000000;fill-opacity:1;stroke:none;stroke-width:0.26458332;stroke-linecap:butt;stroke-linejoin:miter;stroke-miterlimit:4;stroke-dasharray:none;stroke-opacity:1" />
    <path
       id="path931-3-7-5"
       d="m 149.61257,36.159867 h -27.90423 l 2.64583,-2.645834 h 27.71525 z"
       style="fill:#000000;fill-opacity:1;stroke:none;stroke-width:0.26458332;stroke-linecap:butt;stroke-linejoin:miter;stroke-miterlimit:4;stroke-dasharray:none;stroke-opacity:1" />
    <path
       id="path931-3-7-5-3"
       d="m 162.36491,33.51395 47.97884,-5.8e-5 -2.64583,2.645834 -47.97883,5.7e-5 z"
       style="fill:#000000;fill-opacity:1;stroke:none;stroke-width:0.26458332;stroke-linecap:butt;stroke-linejoin:miter;stroke-miterlimit:4;stroke-dasharray:none;stroke-opacity:1" />
    <path
       id="path1008"
       d="m 215.63542,41.892364 -2.64583,2.645833 h -50.27083 l 2.64582,-2.645833 z"
       style="fill:#000000;fill-opacity:1;stroke:none;stroke-width:0.26458332px;stroke-linecap:butt;stroke-linejoin:miter;stroke-opacity:1" />
    <path
       id="path1008-5"
       d="m 220.92708,50.270836 -2.64583,2.645833 h -59.53124 l 2.64582,-2.645833 z"
       style="fill:#000000;fill-opacity:1;stroke:none;stroke-width:0.26458332px;stroke-linecap:butt;stroke-linejoin:miter;stroke-opacity:1" />
    <path
       id="path4728"
       d="m 195.79166,2.3768652e-6 h 13.22917 L 206.375,2.6458357 h -13.22917 z"
       style="fill:#000000;fill-opacity:1;stroke:none;stroke-width:0.26458332px;stroke-linecap:butt;stroke-linejoin:miter;stroke-opacity:1" />
    <path
       id="path4728-2"
       d="m 201.08333,8.3780311 h 13.22917 l -2.64583,2.6458339 H 198.4375 Z"
       style="fill:#000000;fill-opacity:1;stroke:none;stroke-width:0.26458332px;stroke-linecap:butt;stroke-linejoin:miter;stroke-opacity:1" />
    <path
       id="path4728-2-9"
       d="m 206.375,16.757031 h 13.22917 l -2.64583,2.645834 h -13.22917 z"
       style="fill:#000000;fill-opacity:1;stroke:none;stroke-width:0.26458332px;stroke-linecap:butt;stroke-linejoin:miter;stroke-opacity:1" />
    <path
       id="path4728-2-9-1"
       d="m 211.66667,25.135419 h 13.22917 l -2.64583,2.645834 h -13.22917 z"
       style="fill:#000000;fill-opacity:1;stroke:none;stroke-width:0.26458332px;stroke-linecap:butt;stroke-linejoin:miter;stroke-opacity:1" />
    <path
       id="path4728-2-9-2"
       d="m 215.63542,33.514031 h 13.22917 l -2.64583,2.645834 h -13.22917 z"
       style="fill:#000000;fill-opacity:1;stroke:none;stroke-width:0.26458332px;stroke-linecap:butt;stroke-linejoin:miter;stroke-opacity:1" />
    <path
       id="path4728-2-9-2-7"
       d="m 220.92708,41.892031 h 13.22917 l -2.64583,2.645834 h -13.22917 z"
       style="fill:#000000;fill-opacity:1;stroke:none;stroke-width:0.26458332px;stroke-linecap:butt;stroke-linejoin:miter;stroke-opacity:1" />
    <path
       id="path4728-2-9-2-7-0"
       d="m 226.21875,50.270836 h 13.22917 l -2.64583,2.645834 h -13.22917 z"
       style="fill:#000000;fill-opacity:1;stroke:none;stroke-width:0.26458332px;stroke-linecap:butt;stroke-linejoin:miter;stroke-opacity:1" />
    <path
       id="path4728-9"
       d="m 214.3125,2.3768652e-6 5.29168,-10e-14 L 216.95835,2.6458357 h -5.29168 z"
       style="fill:#000000;fill-opacity:1;stroke:none;stroke-width:0.26458332px;stroke-linecap:butt;stroke-linejoin:miter;stroke-opacity:1" />
    <path
       id="path4728-9-3"
       d="m 219.60417,8.3780314 h 5.29168 l -2.64583,2.6458336 h -5.29168 z"
       style="fill:#000000;fill-opacity:1;stroke:none;stroke-width:0.26458332px;stroke-linecap:butt;stroke-linejoin:miter;stroke-opacity:1" />
    <path
       id="path4728-9-3-6"
       d="m 224.89583,16.757032 h 5.29168 l -2.64583,2.645833 H 222.25 Z"
       style="fill:#000000;fill-opacity:1;stroke:none;stroke-width:0.26458332px;stroke-linecap:butt;stroke-linejoin:miter;stroke-opacity:1" />
    <path
       id="path4728-9-3-0"
       d="m 230.1875,25.135419 h 5.29168 l -2.64583,2.645833 h -5.29168 z"
       style="fill:#000000;fill-opacity:1;stroke:none;stroke-width:0.26458332px;stroke-linecap:butt;stroke-linejoin:miter;stroke-opacity:1" />
    <path
       id="path4728-9-3-62"
       d="m 234.15625,33.514032 h 5.29168 l -2.64583,2.645833 h -5.29168 z"
       style="fill:#000000;fill-opacity:1;stroke:none;stroke-width:0.26458332px;stroke-linecap:butt;stroke-linejoin:miter;stroke-opacity:1" />
    <path
       id="path4728-9-3-61"
       d="m 239.44792,41.892032 h 5.29168 l -2.64583,2.645833 h -5.29168 z"
       style="fill:#000000;fill-opacity:1;stroke:none;stroke-width:0.26458332px;stroke-linecap:butt;stroke-linejoin:miter;stroke-opacity:1" />
    <path
       id="path4728-9-3-8"
       d="m 244.73958,50.270836 h 5.29168 l -2.64583,2.645833 h -5.29168 z"
       style="fill:#000000;fill-opacity:1;stroke:none;stroke-width:0.26458332px;stroke-linecap:butt;stroke-linejoin:miter;stroke-opacity:1" />
  </g>
  <g
     style="display:inline"
     transform="translate(57.625002,-234.08332)"
     id="layer1">
    <path
       id="path12"
       d="M 5.2916653,244.08332 H -18.520834 c -13.229166,0 -29.104167,13.22917 -29.104167,26.45833 0,13.22917 7.9375,26.45834 21.166666,26.45834 h 21.1666683 l 2.645833,-5.29167 H -23.812501 c -13.229167,0 -18.520833,-7.9375 -18.520833,-21.16667 0,-13.22916 13.229167,-23.8125 26.458333,-23.8125 H 2.6458323 Z"
       style="display:inline;fill:#000000;fill-opacity:1;stroke:#000000;stroke-width:0;stroke-linecap:butt;stroke-linejoin:miter;stroke-miterlimit:4;stroke-dasharray:none;stroke-opacity:1" />
  </g>
  <g
     transform="translate(57.625002,10.000001)"
     style="display:inline"
     id="layer2">
    <path
       id="path4543"
       d="M 52.916666,3.3333336e-8 50.270833,2.6458333 23.8125,2.645834 c -5.291667,0 -13.229167,7.937499 -13.229167,13.229166 0,5.291667 2.645833,10.583333 7.937499,10.583333 h 15.875002 c 5.291666,0 10.583333,5.291667 10.583333,13.229167 0,7.9375 -2.645833,13.229167 -7.937499,13.229167 H 3.3333333e-7 L 2.6458333,47.625 H 34.395834 c 5.291667,0 5.291667,-5.291667 5.291667,-7.9375 0,-2.645833 -2.645834,-10.583333 -7.937501,-10.583333 H 15.874999 C 7.937499,29.104167 5.2916663,23.8125 5.2916663,15.875 5.2916673,7.9375 13.229167,2.9999999e-7 21.166667,6.9999999e-7 Z"
       style="fill:#000000;fill-opacity:1;stroke:none;stroke-width:0.30000001;stroke-linecap:butt;stroke-linejoin:miter;stroke-miterlimit:4;stroke-dasharray:none;stroke-opacity:1" />
    <path
       id="path4543-5"
       d="M 100.54167,0 97.895836,2.645834 H 71.4375 c -5.291667,0 -13.229167,7.937499 -13.229167,13.229166 0,5.291667 2.645834,10.583333 7.9375,10.583333 h 15.875 c 5.291667,0 10.583333,5.291667 10.583333,13.229167 0,7.9375 -2.645833,13.229167 -7.9375,13.229167 H 47.625 L 50.270833,47.625 h 31.75 c 5.291666,0 5.291666,-5.291667 5.291666,-7.9375 0,-2.645833 -2.645833,-10.583333 -7.937499,-10.583333 H 63.5 C 55.5625,29.104167 52.916666,23.8125 52.916666,15.875 52.916667,7.9375003 60.854167,9.9999998e-7 68.791667,9.9999998e-7 Z"
       style="display:inline;fill:#000000;fill-opacity:1;stroke:none;stroke-width:0.30000001;stroke-linecap:butt;stroke-linejoin:miter;stroke-miterlimit:4;stroke-dasharray:none;stroke-opacity:1" />
  </g>
</svg>
